<svg xmlns="http://www.w3.org/2000/svg" viewBox="0 0 128 128" width="128" height="128" role="img" aria-label="arrow icon" shape-rendering="geometricPrecision">
  <defs>
    <linearGradient id="metalGrad" x1="0" y1="0" x2="0" y2="1">
      <stop offset="0%" stop-color="#F9FCFF"/>
      <stop offset="55%" stop-color="#D7E0E9"/>
      <stop offset="100%" stop-color="#A9B4C0"/>
    </linearGradient>
    <linearGradient id="darkMetalGrad" x1="0" y1="0" x2="0" y2="1">
      <stop offset="0%" stop-color="#747E89"/>
      <stop offset="100%" stop-color="#3A434D"/>
    </linearGradient>
    <linearGradient id="woodGrad" x1="0" y1="0" x2="0" y2="1">
      <stop offset="0%" stop-color="#E29A45"/>
      <stop offset="100%" stop-color="#A9571E"/>
    </linearGradient>
    <linearGradient id="goldGrad" x1="0" y1="0" x2="0" y2="1">
      <stop offset="0%" stop-color="#FFE874"/>
      <stop offset="100%" stop-color="#DDA228"/>
    </linearGradient>
    <linearGradient id="bombGrad" x1="0" y1="0" x2="0" y2="1">
      <stop offset="0%" stop-color="#666F79"/>
      <stop offset="100%" stop-color="#2E343B"/>
    </linearGradient>
    <filter id="shadow" x="-20%" y="-20%" width="140%" height="140%">
      <feDropShadow dx="0" dy="3" stdDeviation="2.5" flood-color="#000000" flood-opacity="0.14"/>
    </filter>
  </defs>

  <g filter="url(#shadow)" stroke="#151515" stroke-width="7" stroke-linecap="round" stroke-linejoin="round">
    <g transform="rotate(-35 64 64)">
      <rect x="18" y="57" width="84" height="14" rx="7" fill="url(#woodGrad)"/>
      <rect x="25" y="60" width="65" height="4" rx="2" fill="#F1B569" stroke="none"/>
      <path d="M98 43 L121 64 L98 85 Z" fill="url(#metalGrad)"/>
      <path d="M104 50 L121 64 L104 64 Z" fill="#FFFFFF" stroke="none" opacity="0.85"/>
      <path d="M12 52 L32 61 L12 61 Z" fill="#F7FAFD"/>
      <path d="M12 76 L32 67 L12 67 Z" fill="#F7FAFD"/>
      <path d="M14 55 L28 61" stroke="#BAC3CD" stroke-width="3"/>
      <path d="M14 73 L28 67" stroke="#BAC3CD" stroke-width="3"/>
    </g>

  </g>
</svg>
