<svg xmlns="http://www.w3.org/2000/svg" viewBox="0 0 128 128" width="128" height="128" role="img" aria-label="bullet icon" shape-rendering="geometricPrecision">
  <defs>
    <linearGradient id="metalGrad" x1="0" y1="0" x2="0" y2="1">
      <stop offset="0%" stop-color="#F9FCFF"/>
      <stop offset="55%" stop-color="#D7E0E9"/>
      <stop offset="100%" stop-color="#A9B4C0"/>
    </linearGradient>
    <linearGradient id="darkMetalGrad" x1="0" y1="0" x2="0" y2="1">
      <stop offset="0%" stop-color="#747E89"/>
      <stop offset="100%" stop-color="#3A434D"/>
    </linearGradient>
    <linearGradient id="woodGrad" x1="0" y1="0" x2="0" y2="1">
      <stop offset="0%" stop-color="#E29A45"/>
      <stop offset="100%" stop-color="#A9571E"/>
    </linearGradient>
    <linearGradient id="goldGrad" x1="0" y1="0" x2="0" y2="1">
      <stop offset="0%" stop-color="#FFE874"/>
      <stop offset="100%" stop-color="#DDA228"/>
    </linearGradient>
    <linearGradient id="bombGrad" x1="0" y1="0" x2="0" y2="1">
      <stop offset="0%" stop-color="#666F79"/>
      <stop offset="100%" stop-color="#2E343B"/>
    </linearGradient>
    <filter id="shadow" x="-20%" y="-20%" width="140%" height="140%">
      <feDropShadow dx="0" dy="3" stdDeviation="2.5" flood-color="#000000" flood-opacity="0.14"/>
    </filter>
  </defs>

  <g filter="url(#shadow)" stroke="#151515" stroke-width="7" stroke-linecap="round" stroke-linejoin="round">
    <path d="M44 56 Q44 32 64 16 Q84 32 84 56 V89 H44 Z" fill="url(#goldGrad)"/>
    <path d="M64 16 Q84 32 84 56 V89 H64 Z" fill="#E8B233"/>
    <rect x="42" y="85" width="44" height="21" rx="6" fill="#D49631"/>
    <rect x="39" y="103" width="50" height="13" rx="4" fill="#746B65"/>
    <path d="M51 31 Q46 42 46 57" fill="none" stroke="#FFF4A7" stroke-width="4.5"/>
    <ellipse cx="73" cy="31" rx="7" ry="5" fill="#FFF7C8" stroke="none"/>

  </g>
</svg>
