<svg xmlns="http://www.w3.org/2000/svg" viewBox="0 0 128 128" width="128" height="128" role="img" aria-label="revolver icon" shape-rendering="geometricPrecision">
  <defs>
    <linearGradient id="metalGrad" x1="0" y1="0" x2="0" y2="1">
      <stop offset="0%" stop-color="#F9FCFF"/>
      <stop offset="55%" stop-color="#D7E0E9"/>
      <stop offset="100%" stop-color="#A9B4C0"/>
    </linearGradient>
    <linearGradient id="darkMetalGrad" x1="0" y1="0" x2="0" y2="1">
      <stop offset="0%" stop-color="#747E89"/>
      <stop offset="100%" stop-color="#3A434D"/>
    </linearGradient>
    <linearGradient id="woodGrad" x1="0" y1="0" x2="0" y2="1">
      <stop offset="0%" stop-color="#E29A45"/>
      <stop offset="100%" stop-color="#A9571E"/>
    </linearGradient>
    <linearGradient id="goldGrad" x1="0" y1="0" x2="0" y2="1">
      <stop offset="0%" stop-color="#FFE874"/>
      <stop offset="100%" stop-color="#DDA228"/>
    </linearGradient>
    <linearGradient id="bombGrad" x1="0" y1="0" x2="0" y2="1">
      <stop offset="0%" stop-color="#666F79"/>
      <stop offset="100%" stop-color="#2E343B"/>
    </linearGradient>
    <filter id="shadow" x="-20%" y="-20%" width="140%" height="140%">
      <feDropShadow dx="0" dy="3" stdDeviation="2.5" flood-color="#000000" flood-opacity="0.14"/>
    </filter>
  </defs>

  <g filter="url(#shadow)" stroke="#151515" stroke-width="7" stroke-linecap="round" stroke-linejoin="round">
    <rect x="10" y="42" width="48" height="23" rx="6" fill="url(#darkMetalGrad)"/>
    <rect x="22" y="66" width="35" height="11" rx="4" fill="#384049"/>
    <rect x="49" y="34" width="41" height="42" rx="10" fill="#AEB8C2"/>
    <circle cx="70" cy="55" r="15.5" fill="#D2D9E1"/>
    <circle cx="70" cy="55" r="5" fill="#30363D"/>
    <circle cx="58" cy="55" r="3.5" fill="#30363D"/>
    <circle cx="82" cy="55" r="3.5" fill="#30363D"/>
    <path d="M89 47 C100 42,110 42,115 48 C106 55,99 59,92 66 Z" fill="#5F6973"/>
    <path d="M80 73 C96 70,108 78,112 86 L104 108 C100 116,89 116,81 112 L71 89 C69 80,70 76,80 73 Z" fill="#A8B4BF"/>
    <path d="M79 80 C91 80,99 84,102 90 L98 103 C95 107,88 108,83 104 L77 90 C75 85,75 81,79 80 Z" fill="#DEE5EB" stroke="none"/>
    <path d="M52 41 H85" stroke="#F4F8FB" stroke-width="3.5"/>

  </g>
</svg>
