<svg xmlns="http://www.w3.org/2000/svg" viewBox="0 0 128 128" width="128" height="128" role="img" aria-label="spear icon" shape-rendering="geometricPrecision">
  <defs>
    <linearGradient id="metalGrad" x1="0" y1="0" x2="0" y2="1">
      <stop offset="0%" stop-color="#F9FCFF"/>
      <stop offset="55%" stop-color="#D7E0E9"/>
      <stop offset="100%" stop-color="#A9B4C0"/>
    </linearGradient>
    <linearGradient id="darkMetalGrad" x1="0" y1="0" x2="0" y2="1">
      <stop offset="0%" stop-color="#747E89"/>
      <stop offset="100%" stop-color="#3A434D"/>
    </linearGradient>
    <linearGradient id="woodGrad" x1="0" y1="0" x2="0" y2="1">
      <stop offset="0%" stop-color="#E29A45"/>
      <stop offset="100%" stop-color="#A9571E"/>
    </linearGradient>
    <linearGradient id="goldGrad" x1="0" y1="0" x2="0" y2="1">
      <stop offset="0%" stop-color="#FFE874"/>
      <stop offset="100%" stop-color="#DDA228"/>
    </linearGradient>
    <linearGradient id="bombGrad" x1="0" y1="0" x2="0" y2="1">
      <stop offset="0%" stop-color="#666F79"/>
      <stop offset="100%" stop-color="#2E343B"/>
    </linearGradient>
    <filter id="shadow" x="-20%" y="-20%" width="140%" height="140%">
      <feDropShadow dx="0" dy="3" stdDeviation="2.5" flood-color="#000000" flood-opacity="0.14"/>
    </filter>
  </defs>

  <g filter="url(#shadow)" stroke="#151515" stroke-width="7" stroke-linecap="round" stroke-linejoin="round">
    <g transform="rotate(-40 64 64)">
      <rect x="14" y="57.5" width="86" height="13" rx="6.5" fill="url(#woodGrad)"/>
      <rect x="22" y="60.5" width="67" height="4" rx="2" fill="#F1B569" stroke="none"/>
      <rect x="97" y="54" width="12" height="20" rx="3" fill="#9FAAB4"/>
      <path d="M107 41 L124 64 L107 87 Z" fill="url(#metalGrad)"/>
      <path d="M112 49 L124 64 L112 64 Z" fill="#FFFFFF" stroke="none" opacity="0.9"/>
      <path d="M99 77 C105 81,109 86,110 94 C101 92,96 87,92 79 Z" fill="#F0D266"/>
      <path d="M99 78 C103 80,105 83,106 88" stroke="#F9E99D" stroke-width="2.5"/>
    </g>

  </g>
</svg>
