<svg xmlns="http://www.w3.org/2000/svg" viewBox="0 0 128 128" width="128" height="128" role="img" aria-label="sword icon" shape-rendering="geometricPrecision">
  <defs>
    <linearGradient id="metalGrad" x1="0" y1="0" x2="0" y2="1">
      <stop offset="0%" stop-color="#F9FCFF"/>
      <stop offset="55%" stop-color="#D7E0E9"/>
      <stop offset="100%" stop-color="#A9B4C0"/>
    </linearGradient>
    <linearGradient id="darkMetalGrad" x1="0" y1="0" x2="0" y2="1">
      <stop offset="0%" stop-color="#747E89"/>
      <stop offset="100%" stop-color="#3A434D"/>
    </linearGradient>
    <linearGradient id="woodGrad" x1="0" y1="0" x2="0" y2="1">
      <stop offset="0%" stop-color="#E29A45"/>
      <stop offset="100%" stop-color="#A9571E"/>
    </linearGradient>
    <linearGradient id="goldGrad" x1="0" y1="0" x2="0" y2="1">
      <stop offset="0%" stop-color="#FFE874"/>
      <stop offset="100%" stop-color="#DDA228"/>
    </linearGradient>
    <linearGradient id="bombGrad" x1="0" y1="0" x2="0" y2="1">
      <stop offset="0%" stop-color="#666F79"/>
      <stop offset="100%" stop-color="#2E343B"/>
    </linearGradient>
    <filter id="shadow" x="-20%" y="-20%" width="140%" height="140%">
      <feDropShadow dx="0" dy="3" stdDeviation="2.5" flood-color="#000000" flood-opacity="0.14"/>
    </filter>
  </defs>

  <g filter="url(#shadow)" stroke="#151515" stroke-width="7" stroke-linecap="round" stroke-linejoin="round">
    <path d="M64 10 L85 31 L77 78 H51 L43 31 Z" fill="url(#metalGrad)"/>
    <path d="M64 10 L85 31 L77 78 H64 Z" fill="#BEC8D2"/>
    <path d="M64 20 V77" stroke="#FFFFFF" stroke-width="4"/>
    <path d="M48 78 H80 C89 78 93 82 93 88 V91 C93 95 90 98 86 98 H42 C38 98 35 95 35 91 V88 C35 82 39 78 48 78 Z" fill="#C5CED7"/>
    <rect x="54" y="98" width="20" height="18" rx="6" fill="url(#darkMetalGrad)"/>
    <circle cx="64" cy="118" r="9" fill="#9AA4AF"/>

  </g>
</svg>
